# xmcd
#
# Track frame offsets:
#	150
#	26570
#	41591
#	57978
#	123662
#	145404
#	190478
#
# Disc length: 2800 seconds
#
# Revision: 0
# Processed by: cddbd v1.5.2PL0 Copyright (c) Steve Scherf et al.
# Submitted via: audiograbber 1.83.01
#
DISCID=680aee07
DTITLE=Hodgson and Lee Project, The - Live Blues In The USA [CD2]
DYEAR=2010
DGENRE=Blues
TTITLE0=St. James Infirmary
TTITLE1=I Go Crazy
TTITLE2=Crossroads
TTITLE3=I Can See Clearley
TTITLE4=She Cant Be Loved
TTITLE5=Cant Find My Way Home
TTITLE6=Stone Heads
EXTD=
EXTT0=
EXTT1=
EXTT2=
EXTT3=
EXTT4=
EXTT5=
EXTT6=
PLAYORDER=
